<svg width="21" height="16" viewBox="0 0 21 16" fill="none" xmlns="http://www.w3.org/2000/svg">
<path d="M10.2368 14.8552H3.95578C2.92116 14.8552 2.40385 14.8552 2.00868 14.6665C1.66107 14.5004 1.37846 14.2355 1.20135 13.9096C1 13.5391 1 13.0541 1 12.0842V3.77104C1 2.80109 1 2.31611 1.20135 1.94564C1.37846 1.61976 1.66107 1.35481 2.00868 1.18877C2.40385 1 2.92116 1 3.95578 1H4.32525C6.39449 1 7.42911 1 8.21946 1.37753C8.91467 1.70962 9.47989 2.23951 9.83411 2.89127C10.2368 3.63222 10.2368 4.60218 10.2368 6.54209M10.2368 14.8552V6.54209M10.2368 14.8552H16.5179C17.5525 14.8552 18.0698 14.8552 18.465 14.6665C18.8126 14.5004 19.0952 14.2355 19.2723 13.9096C19.4736 13.5391 19.4736 13.0541 19.4736 12.0842V3.77104C19.4736 2.80109 19.4736 2.31611 19.2723 1.94564C19.0952 1.61976 18.8126 1.35481 18.465 1.18877C18.0698 1 17.5525 1 16.5179 1H16.1484C14.0791 1 13.0445 1 12.2542 1.37753C11.559 1.70962 10.9937 2.23951 10.6395 2.89127C10.2368 3.63222 10.2368 4.60218 10.2368 6.54209" stroke="#686868" stroke-width="2" stroke-linecap="round" stroke-linejoin="round"/>
</svg>
