<svg width="19" height="18" viewBox="0 0 19 18" fill="none" xmlns="http://www.w3.org/2000/svg">
<path d="M3.43917 16.7062H15.4749M1.28993 5.71208H17.6241M7.73764 1.00031L6.01825 5.71208L9.45703 13.9577L12.8958 5.71208L11.1764 1.00031M9.96593 13.839L17.6513 6.11674C17.794 5.9733 17.8654 5.90158 17.8938 5.81992C17.9189 5.74796 17.9207 5.67092 17.8991 5.59804C17.8745 5.51533 17.8066 5.44087 17.6707 5.29195L13.9617 1.22635C13.8859 1.14326 13.848 1.10172 13.8016 1.07185C13.7604 1.04539 13.7145 1.02573 13.6659 1.01379C13.611 1.00031 13.5518 1.00031 13.4334 1.00031H5.48068C5.36228 1.00031 5.30307 1.00031 5.24821 1.01379C5.1996 1.02573 5.15367 1.04539 5.1125 1.07185C5.06604 1.10172 5.02814 1.14326 4.95234 1.22635L1.24336 5.29195C1.1075 5.44087 1.03957 5.51533 1.015 5.59804C0.993352 5.67092 0.995169 5.74796 1.02023 5.81992C1.04868 5.90158 1.12006 5.9733 1.26281 6.11674L8.94813 13.839C9.12456 14.0163 9.21277 14.1049 9.31644 14.1377C9.40752 14.1665 9.50654 14.1665 9.59762 14.1377C9.70129 14.1049 9.78951 14.0163 9.96593 13.839Z" stroke="#686868" stroke-width="2" stroke-linecap="round" stroke-linejoin="round"/>
</svg>
