<svg width="17" height="20" viewBox="0 0 17 20" fill="none" xmlns="http://www.w3.org/2000/svg">
<path d="M3.85609 16.2758H2.63205C1.73069 16.2758 1 15.5159 1 14.5785V2.69731C1 1.75991 1.7307 1 2.63205 1H14.0564C14.9578 1 15.6885 1.75991 15.6885 2.69731V14.5785C15.6885 15.5159 14.9578 16.2758 14.0564 16.2758H12.8324M8.34424 15.4272C9.69627 15.4272 10.7923 14.2873 10.7923 12.8812C10.7923 11.4751 9.69627 10.3352 8.34424 10.3352C6.9922 10.3352 5.89616 11.4751 5.89616 12.8812C5.89616 14.2873 6.9922 15.4272 8.34424 15.4272ZM8.34424 15.4272L8.36173 15.427L5.75635 18.1366L3.44828 15.7362L5.9122 13.1738M8.34424 15.4272L10.9497 18.1366L13.2577 15.7362L10.7938 13.1738M5.89616 4.39463H10.7923M4.26411 7.36493H12.4244" stroke="#686868" stroke-width="2" stroke-linecap="round" stroke-linejoin="round"/>
</svg>
