<svg width="23" height="17" viewBox="0 0 23 17" fill="none" xmlns="http://www.w3.org/2000/svg">
<path d="M1.51387 8.96318C1.37769 8.74754 1.30959 8.63972 1.27147 8.47342C1.24284 8.3485 1.24284 8.1515 1.27147 8.02658C1.30959 7.86028 1.37769 7.75246 1.51387 7.53682C2.63928 5.75484 5.98915 1.25 11.0942 1.25C16.1992 1.25 19.549 5.75484 20.6744 7.53682C20.8106 7.75246 20.8787 7.86028 20.9168 8.02658C20.9455 8.1515 20.9455 8.3485 20.9168 8.47342C20.8787 8.63972 20.8106 8.74754 20.6744 8.96318C19.549 10.7452 16.1992 15.25 11.0942 15.25C5.98915 15.25 2.63928 10.7452 1.51387 8.96318Z" stroke="#686868" stroke-width="2.5" stroke-linecap="round" stroke-linejoin="round"/>
<path d="M11.0942 11.25C12.751 11.25 14.0942 9.90685 14.0942 8.25C14.0942 6.59315 12.751 5.25 11.0942 5.25C9.4373 5.25 8.09415 6.59315 8.09415 8.25C8.09415 9.90685 9.4373 11.25 11.0942 11.25Z" stroke="#686868" stroke-width="2.5" stroke-linecap="round" stroke-linejoin="round"/>
</svg>
