<svg style="display:none">
  <symbol id="icon-diamond" viewBox="0 0 24 24">
    <path d="M3.43917 16.7062H15.4749M1.28993 5.71208H17.6241M7.73764 1.00031L6.01825 5.71208L9.45703 13.9577L12.8958 5.71208L11.1764 1.00031M9.96593 13.839L17.6513 6.11674C17.794 5.9733 17.8654 5.90158 17.8938 5.81992C17.9189 5.74796 17.9207 5.67092 17.8991 5.59804C17.8745 5.51533 17.8066 5.44087 17.6707 5.29195L13.9617 1.22635C13.8859 1.14326 13.848 1.10172 13.8016 1.07185C13.7604 1.04539 13.7145 1.02573 13.6659 1.01379C13.611 1.00031 13.5518 1.00031 13.4334 1.00031H5.48068C5.36228 1.00031 5.30307 1.00031 5.24821 1.01379C5.1996 1.02573 5.15367 1.04539 5.1125 1.07185C5.06604 1.10172 5.02814 1.14326 4.95234 1.22635L1.24336 5.29195C1.1075 5.44087 1.03957 5.51533 1.015 5.59804C0.993352 5.67092 0.995169 5.74796 1.02023 5.81992C1.04868 5.90158 1.12006 5.9733 1.26281 6.11674L8.94813 13.839C9.12456 14.0163 9.21277 14.1049 9.31644 14.1377C9.40752 14.1665 9.50654 14.1665 9.59762 14.1377C9.70129 14.1049 9.78951 14.0163 9.96593 13.839Z" stroke="currentColor" stroke-width="2" stroke-linecap="round" stroke-linejoin="round"/>
  </symbol>
  <symbol id="icon-link" viewBox="0 0 24 24" width="24" height="24">
    <path d="M10.0426 13.9524L8.64573 15.1624C6.71709 16.8331 3.79925 16.624 2.12857 14.6954C0.457877 12.7667 0.666987 9.84892 2.59563 8.17823L3.99247 6.96821M14.2331 10.3224L15.6299 9.11235C17.5586 7.44166 17.7677 4.52383 16.097 2.59519C14.4263 0.666549 11.5085 0.457439 9.57985 2.12813L8.183 3.33815M5.62068 11.6703L12.6049 5.62024" stroke="currentColor" stroke-width="2" stroke-linecap="round" stroke-linejoin="round"/>
  </symbol>
  <symbol id="icon-doc" viewBox="0 0 24 24" width="24" height="24">
    <path d="M3.85609 16.2758H2.63205C1.73069 16.2758 1 15.5159 1 14.5785V2.69731C1 1.75991 1.7307 1 2.63205 1H14.0564C14.9578 1 15.6885 1.75991 15.6885 2.69731V14.5785C15.6885 15.5159 14.9578 16.2758 14.0564 16.2758H12.8324M8.34424 15.4272C9.69627 15.4272 10.7923 14.2873 10.7923 12.8812C10.7923 11.4751 9.69627 10.3352 8.34424 10.3352C6.9922 10.3352 5.89616 11.4751 5.89616 12.8812C5.89616 14.2873 6.9922 15.4272 8.34424 15.4272ZM8.34424 15.4272L8.36173 15.427L5.75635 18.1366L3.44828 15.7362L5.9122 13.1738M8.34424 15.4272L10.9497 18.1366L13.2577 15.7362L10.7938 13.1738M5.89616 4.39463H10.7923M4.26411 7.36493H12.4244" stroke="currentColor" stroke-width="2" stroke-linecap="round" stroke-linejoin="round"/>
  </symbol>
  <symbol id="icon-book" viewBox="0 0 24 24" width="24" height="24">
    <path d="M10.2368 14.8552H3.95578C2.92116 14.8552 2.40385 14.8552 2.00868 14.6665C1.66107 14.5004 1.37846 14.2355 1.20135 13.9096C1 13.5391 1 13.0541 1 12.0842V3.77104C1 2.80109 1 2.31611 1.20135 1.94564C1.37846 1.61976 1.66107 1.35481 2.00868 1.18877C2.40385 1 2.92116 1 3.95578 1H4.32525C6.39449 1 7.42911 1 8.21946 1.37753C8.91467 1.70962 9.47989 2.23951 9.83411 2.89127C10.2368 3.63222 10.2368 4.60218 10.2368 6.54209M10.2368 14.8552V6.54209M10.2368 14.8552H16.5179C17.5525 14.8552 18.0698 14.8552 18.465 14.6665C18.8126 14.5004 19.0952 14.2355 19.2723 13.9096C19.4736 13.5391 19.4736 13.0541 19.4736 12.0842V3.77104C19.4736 2.80109 19.4736 2.31611 19.2723 1.94564C19.0952 1.61976 18.8126 1.35481 18.465 1.18877C18.0698 1 17.5525 1 16.5179 1H16.1484C14.0791 1 13.0445 1 12.2542 1.37753C11.559 1.70962 10.9937 2.23951 10.6395 2.89127C10.2368 3.63222 10.2368 4.60218 10.2368 6.54209" stroke="currentColor" stroke-width="2" stroke-linecap="round" stroke-linejoin="round"/>
  </symbol>
  <symbol id="icon-phone" viewBox="0 0 24 24" width="24" height="24">
    <path d="M9.84304 4.14768C10.5557 4.29763 11.2106 4.67353 11.7241 5.22725C12.2375 5.78097 12.586 6.48733 12.7251 7.25592M9.84304 1.00009C11.3236 1.17749 12.7043 1.89257 13.7584 3.02793C14.8124 4.16329 15.4772 5.65144 15.6436 7.24805M7.05366 10.3351C6.17696 9.38958 5.4847 8.32047 4.97689 7.17977C4.93321 7.08165 4.91137 7.03259 4.89459 6.97051C4.83496 6.7499 4.87779 6.47901 5.00183 6.29218C5.03674 6.2396 5.07844 6.19463 5.16185 6.10467C5.41693 5.82957 5.54447 5.69202 5.62785 5.5537C5.94232 5.03207 5.94232 4.35961 5.62786 3.83798C5.54447 3.69966 5.41693 3.56211 5.16185 3.287L5.01967 3.13366C4.63191 2.71547 4.43803 2.50638 4.22981 2.39279C3.81571 2.1669 3.32667 2.1669 2.91256 2.39279C2.70434 2.50638 2.51046 2.71547 2.12271 3.13366L2.00769 3.25771C1.62127 3.67446 1.42805 3.88284 1.28049 4.16615C1.11675 4.48052 0.999011 4.96878 1.00001 5.32936C1.0009 5.6543 1.05935 5.87638 1.17624 6.32054C1.80442 8.70751 2.98968 10.9599 4.73201 12.839C6.47434 14.7181 8.56279 15.9964 10.776 16.6739C11.1879 16.7999 11.3938 16.863 11.6951 16.8639C12.0294 16.865 12.4821 16.738 12.7736 16.5614C13.0363 16.4023 13.2295 16.1939 13.616 15.7772L13.731 15.6531C14.1187 15.2349 14.3126 15.0258 14.4179 14.8013C14.6274 14.3546 14.6274 13.8272 14.4179 13.3806C14.3126 13.156 14.1187 12.9469 13.731 12.5288L13.5888 12.3754C13.3337 12.1003 13.2062 11.9628 13.0779 11.8728C12.5943 11.5337 11.9707 11.5337 11.4871 11.8728C11.3588 11.9628 11.2313 12.1003 10.9762 12.3754C10.8928 12.4654 10.8511 12.5103 10.8023 12.548C10.6291 12.6818 10.3779 12.728 10.1734 12.6637C10.1158 12.6456 10.0703 12.622 9.97934 12.5749C8.92167 12.0272 7.93037 11.2806 7.05366 10.3351Z" stroke="currentColor" stroke-width="2" stroke-linecap="round" stroke-linejoin="round"/>
  </symbol>
</svg>