<svg width="17" height="18" viewBox="0 0 17 18" fill="none" xmlns="http://www.w3.org/2000/svg">
<path d="M9.84304 4.14768C10.5557 4.29763 11.2106 4.67353 11.7241 5.22725C12.2375 5.78097 12.586 6.48733 12.7251 7.25592M9.84304 1.00009C11.3236 1.17749 12.7043 1.89257 13.7584 3.02793C14.8124 4.16329 15.4772 5.65144 15.6436 7.24805M7.05366 10.3351C6.17696 9.38958 5.4847 8.32047 4.97689 7.17977C4.93321 7.08165 4.91137 7.03259 4.89459 6.97051C4.83496 6.7499 4.87779 6.47901 5.00183 6.29218C5.03674 6.2396 5.07844 6.19463 5.16185 6.10467C5.41693 5.82957 5.54447 5.69202 5.62785 5.5537C5.94232 5.03207 5.94232 4.35961 5.62786 3.83798C5.54447 3.69966 5.41693 3.56211 5.16185 3.287L5.01967 3.13366C4.63191 2.71547 4.43803 2.50638 4.22981 2.39279C3.81571 2.1669 3.32667 2.1669 2.91256 2.39279C2.70434 2.50638 2.51046 2.71547 2.12271 3.13366L2.00769 3.25771C1.62127 3.67446 1.42805 3.88284 1.28049 4.16615C1.11675 4.48052 0.999011 4.96878 1.00001 5.32936C1.0009 5.6543 1.05935 5.87638 1.17624 6.32054C1.80442 8.70751 2.98968 10.9599 4.73201 12.839C6.47434 14.7181 8.56279 15.9964 10.776 16.6739C11.1879 16.7999 11.3938 16.863 11.6951 16.8639C12.0294 16.865 12.4821 16.738 12.7736 16.5614C13.0363 16.4023 13.2295 16.1939 13.616 15.7772L13.731 15.6531C14.1187 15.2349 14.3126 15.0258 14.4179 14.8013C14.6274 14.3546 14.6274 13.8272 14.4179 13.3806C14.3126 13.156 14.1187 12.9469 13.731 12.5288L13.5888 12.3754C13.3337 12.1003 13.2062 11.9628 13.0779 11.8728C12.5943 11.5337 11.9707 11.5337 11.4871 11.8728C11.3588 11.9628 11.2313 12.1003 10.9762 12.3754C10.8928 12.4654 10.8511 12.5103 10.8023 12.548C10.6291 12.6818 10.3779 12.728 10.1734 12.6637C10.1158 12.6456 10.0703 12.622 9.97934 12.5749C8.92167 12.0272 7.93037 11.2806 7.05366 10.3351Z" stroke="#686868" stroke-width="2" stroke-linecap="round" stroke-linejoin="round"/>
</svg>
